# xmcd CD database file
#
# Track frame offsets:
#	150
#	26942
#	39409
#	66657
#	85929
#	107446
#	133048
#	168922
#	187805
#	218398
#	240168
#	261425
#	277137
#	297927
#
# Disc length: 4316 seconds
#
# Revision: 0
# Processed by: cddbd v1.5.2PL0 Copyright (c) Steve Scherf et al.
# Submitted via: CDex 1.70beta2
#
DISCID=c810da0e
DTITLE=Various Artist - Just Jazz The Best [CD2)
DYEAR=2006
DGENRE=Jazz
TTITLE0=Morning - Manfredo Fest
TTITLE1=Desafinado - Antonio Carlos Jobin
TTITLE2=Speak low - Caltjader
TTITLE3=Tahiti Hut - Deodato
TTITLE4=City Lights - Dave Grusin
TTITLE5=Pequeño girasol - Cayenne
TTITLE6=Quizas, quizas, quizas - Tu mi delirio - Adios
TTITLE7=Treasures of the heart - Nestor Torres
TTITLE8=Tenderly - Jimmy Bruno Trio
TTITLE9=Walk on by - Peter White
TTITLE10=I should care - Scott Hamilton
TTITLE11=Michelle - Sarah Vaughan
TTITLE12=Smoke gets in your eyes - Manfredo Fest and Scott Hamilton
TTITLE13=Long way from Brooklyn - Down to the bone
EXTD=YEAR: 2006
EXTT0=
EXTT1=
EXTT2=
EXTT3=
EXTT4=
EXTT5=
EXTT6=
EXTT7=
EXTT8=
EXTT9=
EXTT10=
EXTT11=
EXTT12=
EXTT13=
PLAYORDER=
